<?xml version="1.0" standalone="no"?>
<!DOCTYPE svg PUBLIC "-//W3C//DTD SVG 20010904//EN"
 "http://www.w3.org/TR/2001/REC-SVG-20010904/DTD/svg10.dtd">
<svg version="1.0" xmlns="http://www.w3.org/2000/svg"
 width="512.000000pt" height="512.000000pt" viewBox="0 0 512.000000 512.000000"
 preserveAspectRatio="xMidYMid meet">
<metadata>
Created by potrace 1.11, written by Peter Selinger 2001-2013
</metadata>
<g transform="translate(0.000000,512.000000) scale(0.100000,-0.100000)"
fill="#000000" stroke="none">
<path d="M2195 3858 c-2 -7 -20 -76 -40 -153 -132 -513 -361 -986 -661 -1362
-100 -125 -331 -356 -454 -455 -225 -179 -485 -337 -833 -509 -114 -55 -207
-105 -207 -110 0 -5 12 -9 28 -9 25 0 182 32 226 46 11 4 16 2 12 -4 -10 -17
44 -21 144 -10 115 12 562 11 680 -2 302 -33 813 -31 1180 5 811 81 1577 337
2291 765 242 145 569 373 552 383 -6 4 -609 246 -690 278 -20 7 -14 15 70 96
51 48 94 89 96 91 12 6 -33 19 -377 109 l-371 96 31 36 c71 84 188 233 188
239 0 4 -161 27 -358 51 -196 24 -365 47 -374 50 -13 5 0 32 75 152 51 81 102
165 115 188 l23 41 -671 0 c-528 0 -672 -3 -675 -12z m-198 -1032 c2 -19 -1
-37 -7 -41 -6 -4 -10 11 -10 41 0 53 11 53 17 0z m78 34 c-3 -5 -17 -10 -31
-10 -13 0 -24 -4 -24 -10 0 -5 11 -10 25 -10 30 0 43 -24 25 -45 -14 -17 -60
-21 -60 -5 0 6 11 10 25 10 14 0 25 5 25 10 0 6 -8 10 -19 10 -28 0 -47 26
-31 45 14 17 75 21 65 5z m85 0 c0 -5 -7 -10 -15 -10 -10 0 -16 -12 -17 -37
l-1 -38 -4 38 c-3 24 -9 37 -19 37 -8 0 -14 5 -14 10 0 6 16 10 35 10 19 0 35
-4 35 -10z m30 -41 c0 -21 -4 -39 -10 -39 -5 0 -10 21 -10 46 0 27 4 43 10 39
6 -3 10 -24 10 -46z m68 37 c-11 -8 -18 -26 -18 -45 0 -17 -4 -31 -10 -31 -5
0 -10 16 -10 35 0 19 -4 35 -10 35 -5 0 -10 5 -10 10 0 6 17 10 38 10 33 -1
35 -2 20 -14z m54 -64 c11 -2 19 5 22 20 3 13 7 32 9 43 3 11 5 1 6 -22 1 -47
-20 -69 -51 -52 -13 7 -18 21 -17 52 l2 42 6 -40 c4 -27 12 -41 23 -43z m105
61 c-8 -10 -17 -31 -20 -48 -4 -30 -4 -30 -6 4 0 19 -9 40 -18 47 -16 12 -14
13 21 14 37 0 38 -1 23 -17z m82 3 c7 -8 11 -27 9 -43 -6 -50 -78 -40 -78 11
0 41 45 62 69 32z m121 4 c0 -5 -4 -10 -10 -10 -5 0 -10 -16 -10 -35 0 -19 -4
-35 -10 -35 -5 0 -10 16 -10 35 0 19 -4 35 -10 35 -5 0 -10 5 -10 10 0 6 14
10 30 10 17 0 30 -4 30 -10z m85 0 c-3 -5 -17 -10 -31 -10 -13 0 -24 -4 -24
-10 0 -5 12 -10 26 -10 15 0 23 -4 19 -10 -4 -6 -14 -9 -22 -8 -9 2 -18 -3
-20 -9 -3 -9 6 -13 28 -13 24 0 30 -3 22 -11 -6 -6 -21 -9 -34 -7 -21 3 -24 9
-27 51 l-3 47 36 0 c22 0 34 -4 30 -10z m75 0 c0 -5 -11 -10 -24 -10 -28 0
-42 -26 -25 -46 6 -8 21 -14 32 -14 16 0 18 -3 10 -11 -9 -9 -18 -8 -37 5 -28
18 -34 54 -14 74 15 15 58 16 58 2z m45 -20 l20 -30 6 32 c5 28 7 26 7 -17 l1
-50 -22 28 c-28 34 -36 34 -29 2 2 -15 0 -25 -7 -25 -6 0 -11 19 -11 45 0 53
8 56 35 15z m62 -37 c-2 -16 -4 -5 -4 22 0 28 2 40 4 28 2 -13 2 -35 0 -50z
m78 57 c-3 -5 -14 -10 -25 -10 -22 0 -34 -28 -19 -46 6 -8 21 -14 32 -14 16 0
18 -3 10 -11 -9 -9 -18 -8 -37 5 -28 18 -34 54 -14 74 14 14 62 16 53 2z m75
-4 c28 -35 -11 -93 -47 -70 -36 22 -23 84 17 84 10 0 23 -7 30 -14z m120 4 c0
-5 -5 -9 -12 -7 -8 1 -11 -10 -9 -35 1 -22 -2 -38 -8 -38 -6 0 -11 18 -11 41
0 24 -4 38 -10 34 -5 -3 -10 -1 -10 4 0 6 14 11 30 11 17 0 30 -4 30 -10z m84
-1 c-3 -6 -17 -9 -30 -6 -16 3 -24 0 -24 -9 0 -8 10 -15 23 -15 l22 -2 -22 -4
c-35 -7 -28 -31 10 -36 31 -4 31 -4 -5 -5 l-38 -2 0 45 c0 45 0 45 36 45 23 0
33 -4 28 -11z m71 1 c-4 -6 -10 -8 -14 -5 -5 2 -16 -1 -26 -9 -26 -19 -11 -56
23 -57 25 -2 25 -2 4 -6 -43 -8 -71 44 -40 75 15 15 62 16 53 2z m78 -19 c3
26 4 22 5 -16 l1 -50 -29 34 -29 34 -4 -34 c-3 -26 -4 -22 -5 16 l-1 50 29
-34 29 -34 4 34z m92 9 c15 -17 16 -24 7 -46 -10 -20 -18 -25 -40 -22 -21 2
-28 9 -30 31 -4 30 12 57 33 57 6 0 20 -9 30 -20z m68 -63 c31 -4 31 -4 -5 -5
l-38 -2 2 48 1 47 4 -42 c4 -39 7 -42 36 -46z m91 70 c38 -27 -2 -95 -41 -71
-22 14 -29 50 -13 70 15 17 31 18 54 1z m96 2 c0 -6 -7 -9 -15 -5 -23 9 -47
-22 -35 -45 6 -10 17 -19 25 -19 18 0 20 26 3 33 -8 3 -6 6 5 6 12 1 17 -7 17
-24 0 -20 -5 -25 -25 -25 -37 0 -55 42 -30 70 19 21 55 27 55 9z m29 -36 c-2
-46 -2 -47 -8 -13 -4 19 -5 41 -3 48 8 24 12 11 11 -35z m54 32 c-18 -8 -33
-18 -33 -24 0 -25 15 -41 39 -42 24 -2 24 -2 3 -6 -45 -9 -69 39 -36 71 8 9
25 16 37 16 18 -1 16 -3 -10 -15z m91 2 c38 -27 -2 -95 -41 -71 -22 14 -29 50
-13 70 15 17 31 18 54 1z m-1489 -139 c3 -3 -10 -29 -31 -58 -36 -50 -38 -52
-83 -50 -25 2 -130 2 -233 1 l-188 -1 0 -50 0 -50 205 0 c113 0 205 -2 205 -5
0 -3 -15 -28 -32 -55 l-33 -50 -80 0 c-44 -1 -122 -1 -172 0 l-93 1 0 -163 0
-163 -37 -55 -38 -55 -3 33 c-3 33 -4 33 -23 16 -19 -17 -19 -12 -19 343 0
198 3 363 8 367 9 9 638 4 647 -6z m1647 -235 c30 -27 24 -84 -12 -118 -25
-24 -43 -30 -90 -35 -33 -3 -60 -3 -60 0 0 3 16 18 35 33 19 15 35 37 35 47 0
19 -7 20 -115 20 l-114 0 -16 30 c-8 16 -15 31 -15 35 0 3 75 5 167 5 141 0
169 -3 185 -17z m-1561 -172 c49 -85 89 -158 89 -163 0 -4 -24 -8 -53 -8 l-52
0 -40 75 -40 75 -86 0 -86 0 -27 -40 c-14 -22 -33 -40 -41 -40 -22 0 -19 7 26
77 l41 63 64 0 c35 0 64 3 64 6 0 4 -13 29 -30 56 -16 26 -30 51 -30 54 0 3
25 4 56 2 l56 -3 89 -154z m802 124 l-17 -35 -135 0 c-144 0 -171 -8 -171 -53
0 -45 26 -57 129 -57 l95 0 38 -37 c38 -37 38 -38 38 -114 0 -77 0 -78 -37
-108 l-38 -31 -184 0 -185 0 34 35 34 35 135 0 c111 0 138 3 153 17 25 23 24
81 -4 110 -20 21 -30 23 -117 23 l-95 0 -38 37 c-34 33 -38 42 -38 89 0 48 3
54 40 88 l40 36 170 0 170 0 -17 -35z m317 30 c0 -4 -7 -19 -15 -35 -15 -29
-16 -29 -111 -32 l-96 -3 -2 -52 -1 -53 305 -2 304 -3 38 -54 c37 -53 38 -57
38 -144 l0 -89 -35 42 c-26 31 -35 51 -35 78 0 21 -9 50 -22 69 l-23 33 -281
0 c-154 0 -283 -2 -285 -4 -2 -2 -3 -36 -1 -75 l4 -71 92 0 92 0 17 -35 17
-35 -129 0 -129 0 -21 34 c-19 30 -21 49 -21 195 0 143 2 166 20 201 l20 40
130 0 c72 0 130 -2 130 -5z m134 -87 c13 -2 22 -12 24 -25 3 -21 -1 -23 -37
-23 l-41 0 1 58 0 57 16 -32 c9 -18 25 -33 37 -35z m-1194 -28 c0 -44 -2 -80
-4 -80 -6 0 -66 108 -66 120 0 9 47 39 63 40 4 0 7 -36 7 -80z m300 -99 l0
-145 -37 -38 -37 -38 -111 0 -110 1 -37 34 c-21 20 -38 36 -38 38 0 1 57 1
126 -1 119 -3 128 -2 150 19 23 22 24 28 24 166 l0 143 35 -17 35 -17 0 -145z
m918 -145 c3 -66 2 -70 -29 -103 -18 -18 -37 -33 -41 -33 -4 0 -8 48 -8 106
l0 105 38 -3 37 -3 3 -69z m-1795 -30 c3 21 4 16 6 -15 l1 -45 -29 28 -29 28
-5 -28 c-3 -21 -4 -16 -6 15 l-1 45 29 -28 29 -28 5 28z m101 2 c24 -39 -35
-76 -68 -43 -9 9 -16 20 -16 25 0 17 33 41 53 38 11 -2 25 -11 31 -20z m29 -5
l14 -27 16 30 c21 38 22 12 1 -28 l-16 -32 -19 35 c-10 19 -18 37 -19 42 0 15
10 6 23 -20z m107 -45 c0 -5 -16 -8 -35 -8 -40 0 -40 -1 -19 48 l15 37 19 -35
c11 -19 19 -38 20 -42z m78 60 c9 -9 8 -16 -5 -30 -10 -11 -11 -18 -5 -18 7 0
12 -5 12 -11 0 -7 -9 -6 -23 4 -21 14 -24 13 -35 -1 -9 -14 -11 -9 -11 26 -1
40 1 42 27 42 15 0 33 -5 40 -12z m92 -60 c0 -5 -16 -8 -35 -8 -39 0 -42 7
-19 52 l17 32 18 -35 c10 -19 18 -37 19 -41z"/>
<path d="M2444 2835 c-4 -9 0 -23 9 -32 21 -21 49 -9 45 19 -4 28 -45 38 -54
13z"/>
<path d="M2985 2840 c-9 -15 4 -50 19 -50 20 0 39 27 32 45 -6 17 -42 20 -51
5z"/>
<path d="M3441 2847 c-16 -16 -13 -47 5 -54 20 -7 45 22 38 42 -8 19 -30 25
-43 12z"/>
<path d="M3600 2845 c-16 -19 -9 -49 14 -53 35 -7 49 40 17 57 -14 8 -22 7
-31 -4z"/>
<path d="M3870 2845 c-16 -19 -9 -49 14 -53 35 -7 49 40 17 57 -14 8 -22 7
-31 -4z"/>
<path d="M2043 2083 c-19 -7 -16 -40 4 -47 9 -4 23 0 31 8 13 12 13 18 2 30
-13 17 -17 18 -37 9z"/>
<path d="M2187 2063 c-12 -12 -7 -33 8 -33 17 0 19 9 7 28 -5 7 -11 9 -15 5z"/>
<path d="M2257 2084 c-4 -4 -4 -10 -2 -14 6 -10 45 0 45 11 0 10 -33 12 -43 3z"/>
<path d="M2357 2063 c-12 -12 -7 -33 8 -33 17 0 19 9 7 28 -5 7 -11 9 -15 5z"/>
</g>
</svg>
